<?xml version="1.0" encoding="UTF-8"?>
<svg xmlns="http://www.w3.org/2000/svg" xmlns:xlink="http://www.w3.org/1999/xlink" width="100px" height="67px" viewBox="0 0 100 67" version="1.1">
<g id="surface1">
<path style=" stroke:none;fill-rule:evenodd;fill:rgb(98.431373%,82.745098%,1.568627%);fill-opacity:1;" d="M 36.25 23.546875 L 36.25 33.460938 L 0 33.460938 L 0 66.914062 L 100 66.914062 L 100 33.460938 L 63.75 33.460938 L 63.75 13.632812 L 36.25 13.632812 L 36.25 23.546875 M 63.335938 28.539062 C 63.335938 44.46875 63.351562 43.253906 63.085938 44.078125 C 62.839844 44.828125 62.421875 45.507812 61.855469 46.070312 C 61.191406 46.726562 60.914062 46.875 58.273438 48.03125 C 57.796875 48.242188 56.101562 48.996094 54.9375 49.515625 C 53.46875 50.179688 53.125 50.328125 52.898438 50.425781 C 52.757812 50.484375 52.34375 50.671875 51.96875 50.839844 C 51.601562 51.007812 51.289062 51.148438 51.273438 51.148438 C 51.261719 51.148438 50.988281 51.273438 50.664062 51.421875 C 49.96875 51.742188 50.023438 51.738281 49.558594 51.519531 C 49.351562 51.425781 48.960938 51.25 48.6875 51.128906 C 48.136719 50.886719 47.3125 50.519531 46.476562 50.148438 C 46.179688 50.011719 45.273438 49.609375 44.460938 49.246094 C 43.644531 48.886719 42.734375 48.480469 42.4375 48.34375 C 42.140625 48.210938 41.398438 47.882812 40.796875 47.617188 C 40.191406 47.347656 39.554688 47.054688 39.378906 46.96875 C 38.007812 46.273438 37.03125 44.941406 36.730469 43.367188 C 36.671875 43.0625 36.664062 41.382812 36.664062 28.539062 L 36.664062 14.054688 L 63.335938 14.054688 L 63.335938 28.539062 M 49.710938 16.550781 C 48.921875 17.664062 48.710938 18.558594 48.789062 20.421875 C 48.835938 21.390625 48.882812 22.132812 49.070312 24.90625 C 49.359375 29.117188 49.03125 31.433594 47.667969 34.882812 C 47.539062 35.210938 46.589844 37.140625 46.523438 37.210938 C 46.480469 37.257812 45.273438 36.953125 45.046875 36.839844 C 43.523438 36.0625 44.105469 33.695312 45.820312 33.695312 C 46.039062 33.695312 46.164062 33.675781 46.164062 33.648438 C 46.164062 33.625 46.128906 33.3125 46.085938 32.957031 C 46.039062 32.601562 45.953125 31.882812 45.898438 31.367188 C 45.710938 29.742188 45.339844 26.6875 45.25 26.085938 C 44.855469 23.460938 43.289062 20.957031 41.023438 19.3125 C 40.742188 19.117188 40.078125 18.695312 40.03125 18.695312 C 40.015625 18.695312 40 24.132812 40 30.78125 L 40 42.867188 L 45.574219 42.867188 L 45.648438 43.195312 C 46.105469 45.289062 47.28125 47.121094 49.09375 48.570312 C 49.476562 48.875 49.738281 49.15625 49.90625 49.4375 C 50 49.597656 49.992188 49.601562 50.21875 49.269531 C 50.351562 49.074219 50.546875 48.871094 50.835938 48.632812 C 52.78125 47.039062 53.882812 45.332031 54.351562 43.195312 L 54.425781 42.867188 L 60 42.867188 L 60 30.78125 C 60 24.132812 59.988281 18.695312 59.972656 18.695312 C 59.933594 18.695312 59.359375 19.050781 59.039062 19.273438 C 56.773438 20.863281 55.179688 23.390625 54.753906 26.078125 C 54.675781 26.578125 54.476562 28.210938 54.039062 31.910156 C 53.945312 32.703125 53.859375 33.4375 53.84375 33.535156 L 53.820312 33.71875 L 54.050781 33.6875 C 55.789062 33.46875 56.519531 36.039062 54.949219 36.839844 C 54.722656 36.953125 53.523438 37.261719 53.480469 37.214844 C 53.40625 37.132812 52.460938 35.210938 52.335938 34.882812 C 50.820312 31.039062 50.632812 29.386719 51.039062 23.296875 C 51.304688 19.320312 51.296875 18.816406 50.949219 17.816406 C 50.75 17.25 50.132812 16.1875 50.003906 16.1875 C 49.984375 16.1875 49.851562 16.351562 49.710938 16.550781 M 42.269531 22.9375 C 43.40625 24.636719 43.570312 25.328125 44.207031 31.011719 C 44.273438 31.632812 44.34375 32.1875 44.351562 32.25 C 44.367188 32.34375 44.332031 32.382812 44.054688 32.5625 C 43.4375 32.96875 42.90625 33.648438 42.6875 34.328125 L 42.617188 34.546875 L 41.664062 34.546875 L 41.667969 28.34375 L 41.671875 22.144531 L 41.816406 22.3125 C 41.898438 22.40625 42.101562 22.6875 42.269531 22.9375 M 58.335938 28.355469 L 58.335938 34.546875 L 57.382812 34.546875 L 57.3125 34.328125 C 57.089844 33.644531 56.542969 32.9375 55.933594 32.554688 C 55.683594 32.390625 55.632812 32.34375 55.648438 32.269531 C 55.65625 32.222656 55.734375 31.589844 55.8125 30.867188 C 56.363281 25.929688 56.507812 25.183594 57.1875 23.839844 C 57.429688 23.359375 58.234375 22.164062 58.316406 22.164062 C 58.328125 22.164062 58.335938 24.953125 58.335938 28.355469 M 50.265625 34.203125 C 50.582031 35.109375 51.046875 36.164062 51.472656 36.949219 C 51.660156 37.292969 51.820312 37.585938 51.824219 37.601562 C 51.828125 37.613281 51.679688 37.6875 51.492188 37.765625 C 51.046875 37.953125 50.625 38.234375 50.28125 38.578125 L 50 38.859375 L 49.71875 38.578125 C 49.378906 38.234375 48.960938 37.953125 48.507812 37.765625 L 48.171875 37.625 L 48.234375 37.5 C 48.273438 37.429688 48.421875 37.152344 48.5625 36.886719 C 48.945312 36.1875 49.414062 35.125 49.714844 34.257812 C 49.859375 33.84375 49.988281 33.5 50 33.5 C 50.011719 33.5 50.132812 33.816406 50.265625 34.203125 M 42.6875 36.398438 C 43.0625 37.546875 43.980469 38.339844 45.289062 38.644531 C 45.792969 38.761719 45.765625 38.71875 45.648438 39.25 C 45.546875 39.679688 45.492188 40.109375 45.433594 40.914062 L 45.410156 41.234375 L 41.664062 41.234375 L 41.664062 36.175781 L 42.617188 36.175781 L 42.6875 36.398438 M 58.335938 38.707031 L 58.335938 41.234375 L 54.59375 41.234375 L 54.5625 40.789062 C 54.527344 40.210938 54.433594 39.546875 54.328125 39.128906 C 54.226562 38.734375 54.203125 38.765625 54.75 38.632812 C 56.054688 38.316406 56.9375 37.542969 57.3125 36.398438 L 57.382812 36.175781 L 58.335938 36.175781 L 58.335938 38.707031 M 47.984375 39.335938 C 48.660156 39.664062 49.164062 40.398438 49.164062 41.054688 L 49.164062 41.234375 L 47.085938 41.234375 L 47.085938 40.953125 C 47.085938 40.476562 47.21875 39.554688 47.339844 39.234375 C 47.390625 39.105469 47.570312 39.132812 47.984375 39.335938 M 52.71875 39.4375 C 52.820312 39.8125 52.914062 40.546875 52.914062 40.925781 L 52.914062 41.234375 L 50.835938 41.234375 L 50.835938 41.078125 C 50.835938 40.3125 51.453125 39.507812 52.265625 39.222656 C 52.59375 39.105469 52.632812 39.125 52.71875 39.4375 M 49.164062 44.625 C 49.164062 45.59375 49.152344 46.382812 49.136719 46.382812 C 49.054688 46.382812 48.414062 45.523438 48.109375 45.019531 C 47.742188 44.402344 47.1875 42.984375 47.28125 42.890625 C 47.296875 42.878906 47.726562 42.867188 48.234375 42.867188 L 49.164062 42.867188 L 49.164062 44.625 M 52.726562 42.984375 C 52.671875 43.226562 52.367188 44.09375 52.234375 44.382812 C 51.957031 44.992188 51.007812 46.382812 50.867188 46.382812 C 50.851562 46.382812 50.835938 45.59375 50.835938 44.625 L 50.835938 42.867188 L 52.75 42.867188 L 52.726562 42.984375 "/>
<path style=" stroke:none;fill-rule:evenodd;fill:rgb(1.568627%,36.078431%,73.333333%);fill-opacity:1;" d="M 0 16.710938 L 0 33.414062 L 36.25 33.414062 L 36.25 13.632812 L 63.75 13.632812 L 63.75 33.414062 L 100 33.414062 L 100 0 L 0 0 L 0 16.710938 M 36.710938 28.53125 C 36.710938 41.226562 36.71875 43.019531 36.773438 43.363281 C 36.972656 44.601562 37.726562 45.804688 38.773438 46.554688 C 39.234375 46.882812 39.347656 46.9375 40.976562 47.65625 C 41.253906 47.777344 41.84375 48.039062 42.289062 48.242188 C 42.738281 48.441406 43.3125 48.695312 43.570312 48.808594 C 44.019531 49.007812 44.769531 49.34375 45.664062 49.75 C 45.90625 49.859375 46.289062 50.027344 46.523438 50.125 C 46.75 50.222656 47.164062 50.40625 47.445312 50.539062 C 47.726562 50.667969 47.964844 50.773438 47.976562 50.773438 C 47.984375 50.773438 48.246094 50.890625 48.550781 51.03125 C 49.210938 51.332031 49.953125 51.648438 50.007812 51.648438 C 50.054688 51.648438 50.375 51.515625 51.1875 51.148438 C 52.078125 50.75 52.867188 50.398438 53.398438 50.164062 C 53.671875 50.042969 54.242188 49.789062 54.664062 49.601562 C 55.089844 49.414062 55.679688 49.148438 55.976562 49.015625 C 56.277344 48.882812 56.71875 48.6875 56.960938 48.578125 C 57.199219 48.46875 57.601562 48.289062 57.851562 48.179688 C 58.105469 48.070312 58.585938 47.855469 58.914062 47.707031 C 59.25 47.558594 59.78125 47.320312 60.101562 47.179688 C 61.621094 46.5 62.601562 45.460938 63.078125 44.011719 C 63.304688 43.335938 63.289062 44.210938 63.289062 28.558594 L 63.289062 14.09375 L 36.710938 14.09375 L 36.710938 28.53125 M 50.265625 16.445312 C 51.316406 17.832031 51.398438 18.625 51.042969 24.007812 C 50.695312 29.273438 50.875 30.90625 52.1875 34.390625 C 52.453125 35.101562 53.367188 37.023438 53.492188 37.148438 C 53.546875 37.199219 54.6875 36.945312 54.914062 36.828125 C 56.429688 36.054688 55.875 33.730469 54.175781 33.730469 L 53.789062 33.730469 L 53.8125 33.585938 C 53.820312 33.503906 53.859375 33.15625 53.898438 32.8125 C 53.933594 32.464844 54.0625 31.359375 54.1875 30.351562 C 54.3125 29.34375 54.476562 28 54.542969 27.371094 C 54.972656 23.441406 56.617188 20.671875 59.59375 18.875 C 59.789062 18.75 59.96875 18.652344 59.976562 18.652344 C 59.992188 18.652344 60 24.109375 60 30.78125 L 60 42.910156 L 54.4375 42.910156 L 54.34375 43.351562 C 53.90625 45.367188 52.421875 47.609375 50.820312 48.675781 C 50.679688 48.765625 50.21875 49.289062 50.054688 49.542969 C 50 49.621094 50 49.621094 49.945312 49.546875 C 49.785156 49.296875 49.359375 48.800781 49.242188 48.71875 C 47.578125 47.566406 46.171875 45.492188 45.6875 43.476562 C 45.632812 43.242188 45.585938 43.015625 45.585938 42.976562 C 45.585938 42.914062 45.328125 42.910156 42.789062 42.910156 L 40 42.910156 L 40 30.78125 C 40 24.109375 40.007812 18.652344 40.015625 18.652344 C 40.054688 18.652344 40.546875 18.945312 40.796875 19.117188 C 43.648438 21.058594 45.039062 23.570312 45.484375 27.5625 C 45.5625 28.285156 45.71875 29.632812 45.835938 30.550781 C 46.007812 31.914062 46.207031 33.609375 46.207031 33.710938 C 46.210938 33.71875 46.035156 33.730469 45.820312 33.730469 C 44.375 33.730469 43.652344 35.492188 44.679688 36.519531 C 44.96875 36.8125 45.28125 36.945312 45.949219 37.0625 L 46.503906 37.164062 L 46.769531 36.660156 C 47.523438 35.226562 47.953125 34.164062 48.414062 32.609375 C 48.789062 31.332031 48.859375 31.023438 49.050781 29.671875 C 49.148438 28.992188 49.117188 26.359375 48.984375 24.296875 C 48.921875 23.320312 48.855469 22.21875 48.832031 21.851562 C 48.632812 18.65625 48.816406 17.601562 49.789062 16.382812 C 50.023438 16.085938 49.984375 16.085938 50.265625 16.445312 M 41.710938 28.367188 L 41.710938 34.507812 L 42.59375 34.484375 L 42.667969 34.273438 C 42.914062 33.546875 43.390625 32.941406 44.0625 32.515625 C 44.199219 32.429688 44.320312 32.351562 44.324219 32.351562 C 44.328125 32.34375 44.261719 31.742188 44.171875 31.007812 C 44.078125 30.273438 43.953125 29.21875 43.894531 28.671875 C 43.609375 26.015625 43.425781 25.195312 42.859375 24.027344 C 42.617188 23.53125 42.074219 22.660156 41.8125 22.351562 L 41.710938 22.226562 L 41.710938 28.367188 M 58.164062 22.390625 C 56.960938 23.863281 56.453125 25.359375 56.148438 28.355469 C 56.109375 28.710938 55.984375 29.757812 55.871094 30.671875 C 55.757812 31.589844 55.671875 32.34375 55.675781 32.351562 C 55.679688 32.355469 55.800781 32.429688 55.9375 32.515625 C 56.601562 32.9375 57.152344 33.636719 57.355469 34.316406 L 57.40625 34.484375 L 58.289062 34.507812 L 58.289062 28.378906 C 58.289062 25.007812 58.289062 22.25 58.28125 22.25 C 58.273438 22.253906 58.222656 22.316406 58.164062 22.390625 M 49.828125 34.054688 C 49.546875 34.929688 48.835938 36.519531 48.371094 37.3125 C 48.1875 37.628906 48.183594 37.640625 48.273438 37.640625 C 48.53125 37.640625 49.539062 38.28125 49.847656 38.648438 L 50.003906 38.832031 L 50.15625 38.648438 C 50.445312 38.296875 51.179688 37.8125 51.617188 37.679688 C 51.828125 37.617188 51.824219 37.640625 51.648438 37.351562 C 51.203125 36.605469 50.296875 34.554688 50.101562 33.84375 C 50.007812 33.5 50.003906 33.507812 49.828125 34.054688 M 41.710938 38.707031 L 41.710938 41.195312 L 45.363281 41.195312 L 45.390625 41 C 45.40625 40.894531 45.414062 40.71875 45.417969 40.617188 C 45.417969 40.363281 45.515625 39.6875 45.628906 39.195312 C 45.734375 38.730469 45.777344 38.78125 45.203125 38.664062 C 43.992188 38.40625 42.828125 37.359375 42.640625 36.359375 L 42.617188 36.21875 L 41.710938 36.21875 L 41.710938 38.707031 M 57.402344 36.246094 C 57.386719 36.261719 57.375 36.304688 57.375 36.34375 C 57.375 36.382812 57.292969 36.578125 57.195312 36.785156 C 56.710938 37.78125 55.875 38.433594 54.796875 38.664062 C 54.222656 38.78125 54.265625 38.734375 54.371094 39.1875 C 54.460938 39.589844 54.566406 40.328125 54.609375 40.871094 L 54.632812 41.195312 L 58.289062 41.195312 L 58.289062 36.21875 L 57.859375 36.21875 C 57.625 36.21875 57.417969 36.230469 57.402344 36.246094 M 47.296875 39.59375 C 47.1875 40.109375 47.125 40.578125 47.125 40.925781 L 47.125 41.195312 L 49.125 41.195312 L 49.125 41.035156 C 49.125 40.222656 48.398438 39.398438 47.515625 39.210938 L 47.390625 39.183594 L 47.296875 39.59375 M 52.335938 39.25 C 51.554688 39.46875 50.96875 40.15625 50.890625 40.949219 L 50.863281 41.195312 L 52.875 41.195312 L 52.875 40.914062 C 52.875 40.375 52.660156 39.183594 52.570312 39.191406 C 52.542969 39.195312 52.4375 39.21875 52.335938 39.25 M 47.347656 43.070312 C 47.472656 43.847656 48.265625 45.375 48.914062 46.09375 L 49.121094 46.320312 L 49.125 44.617188 L 49.125 42.910156 L 47.320312 42.910156 L 47.347656 43.070312 M 50.875 44.617188 L 50.878906 46.320312 L 51.085938 46.09375 C 51.710938 45.398438 52.382812 44.140625 52.617188 43.226562 L 52.699219 42.910156 L 50.875 42.910156 L 50.875 44.617188 "/>
<path style=" stroke:none;fill-rule:evenodd;fill:rgb(51.764706%,61.176471%,36.078431%);fill-opacity:1;" d="M 48.761719 20.09375 C 48.761719 20.210938 48.769531 20.25 48.78125 20.1875 C 48.789062 20.125 48.789062 20.03125 48.78125 19.980469 C 48.769531 19.929688 48.761719 19.980469 48.761719 20.09375 M 51.21875 20.117188 C 51.21875 20.242188 51.226562 20.296875 51.238281 20.234375 C 51.25 20.167969 51.25 20.0625 51.238281 20 C 51.226562 19.9375 51.21875 19.992188 51.21875 20.117188 M 42.351562 20.453125 C 42.515625 20.613281 42.652344 20.742188 42.664062 20.742188 C 42.675781 20.742188 42.554688 20.613281 42.398438 20.453125 C 42.234375 20.289062 42.097656 20.15625 42.085938 20.15625 C 42.074219 20.15625 42.195312 20.289062 42.351562 20.453125 M 57.601562 20.460938 L 57.351562 20.722656 L 57.617188 20.476562 C 57.757812 20.335938 57.875 20.21875 57.875 20.210938 C 57.875 20.179688 57.835938 20.21875 57.601562 20.460938 M 48.804688 21.058594 C 48.804688 21.148438 48.8125 21.179688 48.820312 21.132812 C 48.828125 21.078125 48.828125 21.003906 48.820312 20.960938 C 48.8125 20.921875 48.800781 20.964844 48.804688 21.058594 M 51.175781 21.078125 C 51.175781 21.160156 51.1875 21.191406 51.195312 21.152344 C 51.203125 21.109375 51.203125 21.046875 51.195312 21.007812 C 51.1875 20.964844 51.175781 21 51.175781 21.078125 M 51.132812 21.832031 C 51.132812 21.914062 51.140625 21.945312 51.15625 21.90625 C 51.164062 21.867188 51.164062 21.796875 51.15625 21.757812 C 51.140625 21.71875 51.132812 21.75 51.132812 21.832031 M 51.09375 22.5 C 51.09375 22.578125 51.101562 22.613281 51.109375 22.574219 C 51.125 22.53125 51.125 22.46875 51.109375 22.429688 C 51.101562 22.386719 51.09375 22.421875 51.09375 22.5 M 51.050781 23.128906 C 51.050781 23.210938 51.0625 23.242188 51.070312 23.203125 C 51.078125 23.160156 51.078125 23.09375 51.070312 23.054688 C 51.0625 23.015625 51.050781 23.046875 51.050781 23.128906 M 48.96875 23.710938 C 48.96875 23.796875 48.976562 23.828125 48.984375 23.789062 C 49 23.746094 49 23.679688 48.984375 23.640625 C 48.976562 23.601562 48.96875 23.632812 48.96875 23.710938 M 51.007812 23.734375 C 51.011719 23.828125 51.019531 23.859375 51.03125 23.804688 C 51.039062 23.757812 51.039062 23.679688 51.03125 23.640625 C 51.015625 23.601562 51.007812 23.640625 51.007812 23.734375 M 49.007812 24.320312 C 49.011719 24.414062 49.019531 24.445312 49.03125 24.390625 C 49.039062 24.339844 49.039062 24.265625 49.03125 24.226562 C 49.015625 24.1875 49.007812 24.226562 49.007812 24.320312 M 50.96875 24.359375 C 50.96875 24.453125 50.976562 24.484375 50.988281 24.433594 C 51 24.382812 51 24.304688 50.984375 24.265625 C 50.976562 24.226562 50.96875 24.269531 50.96875 24.359375 M 49.054688 25.050781 C 49.054688 25.179688 49.0625 25.230469 49.070312 25.164062 C 49.078125 25.101562 49.078125 25 49.070312 24.9375 C 49.0625 24.875 49.054688 24.925781 49.054688 25.050781 M 50.929688 25.050781 C 50.929688 25.179688 50.9375 25.230469 50.945312 25.164062 C 50.953125 25.101562 50.953125 25 50.945312 24.9375 C 50.9375 24.875 50.929688 24.925781 50.929688 25.050781 M 49.097656 25.804688 C 49.097656 25.953125 49.101562 26.015625 49.113281 25.941406 C 49.125 25.867188 49.125 25.742188 49.113281 25.667969 C 49.101562 25.59375 49.097656 25.65625 49.097656 25.804688 M 50.890625 25.867188 C 50.890625 26.03125 50.898438 26.089844 50.90625 26 C 50.914062 25.914062 50.914062 25.78125 50.90625 25.710938 C 50.898438 25.632812 50.890625 25.707031 50.890625 25.867188 M 49.140625 26.808594 C 49.140625 27.003906 49.148438 27.085938 49.15625 26.984375 C 49.164062 26.890625 49.164062 26.726562 49.15625 26.632812 C 49.148438 26.53125 49.140625 26.613281 49.140625 26.808594 M 50.847656 26.890625 C 50.847656 27.085938 50.855469 27.167969 50.863281 27.070312 C 50.875 26.972656 50.875 26.8125 50.863281 26.714844 C 50.855469 26.617188 50.847656 26.695312 50.847656 26.890625 M 50.84375 28.898438 C 50.84375 29.003906 50.851562 29.046875 50.863281 28.992188 C 50.875 28.941406 50.875 28.859375 50.863281 28.804688 C 50.851562 28.753906 50.84375 28.796875 50.84375 28.898438 M 49.136719 28.960938 C 49.136719 29.078125 49.144531 29.117188 49.15625 29.054688 C 49.164062 28.992188 49.164062 28.898438 49.15625 28.84375 C 49.144531 28.796875 49.136719 28.847656 49.136719 28.960938 M 50.882812 29.445312 C 50.882812 29.523438 50.890625 29.554688 50.90625 29.515625 C 50.914062 29.476562 50.914062 29.410156 50.90625 29.367188 C 50.890625 29.328125 50.882812 29.363281 50.882812 29.445312 M 43.476562 33.007812 L 43.273438 33.226562 L 43.492188 33.023438 C 43.609375 32.90625 43.710938 32.808594 43.710938 32.800781 C 43.710938 32.769531 43.671875 32.804688 43.476562 33.007812 M 56.476562 33 C 56.59375 33.113281 56.695312 33.207031 56.703125 33.207031 C 56.71875 33.207031 56.632812 33.113281 56.523438 33 C 56.40625 32.882812 56.304688 32.789062 56.296875 32.789062 C 56.28125 32.789062 56.367188 32.882812 56.476562 33 M 45.695312 33.695312 C 45.75 33.707031 45.835938 33.707031 45.882812 33.695312 C 45.9375 33.6875 45.894531 33.679688 45.789062 33.679688 C 45.6875 33.679688 45.648438 33.6875 45.695312 33.695312 M 54.117188 33.695312 C 54.164062 33.707031 54.25 33.707031 54.304688 33.695312 C 54.351562 33.6875 54.3125 33.679688 54.210938 33.679688 C 54.105469 33.679688 54.0625 33.6875 54.117188 33.695312 M 55.3125 34.171875 C 55.402344 34.261719 55.484375 34.335938 55.496094 34.335938 C 55.507812 34.335938 55.445312 34.261719 55.351562 34.171875 C 55.265625 34.078125 55.179688 34 55.171875 34 C 55.160156 34 55.222656 34.078125 55.3125 34.171875 M 44.640625 34.179688 L 44.523438 34.316406 L 44.65625 34.195312 C 44.78125 34.078125 44.8125 34.042969 44.78125 34.042969 C 44.773438 34.042969 44.710938 34.105469 44.640625 34.179688 M 41.90625 34.535156 C 42.054688 34.542969 42.277344 34.542969 42.40625 34.535156 C 42.539062 34.523438 42.421875 34.519531 42.148438 34.519531 C 41.871094 34.519531 41.765625 34.527344 41.90625 34.535156 M 57.617188 34.535156 C 57.757812 34.542969 57.984375 34.542969 58.117188 34.535156 C 58.246094 34.523438 58.128906 34.519531 57.851562 34.519531 C 57.578125 34.519531 57.472656 34.527344 57.617188 34.535156 M 55.3125 36.5625 L 55.148438 36.742188 L 55.320312 36.578125 C 55.488281 36.421875 55.519531 36.386719 55.488281 36.386719 C 55.480469 36.386719 55.398438 36.464844 55.3125 36.5625 M 44.664062 36.574219 C 44.742188 36.65625 44.820312 36.71875 44.828125 36.71875 C 44.839844 36.71875 44.785156 36.65625 44.710938 36.574219 C 44.632812 36.492188 44.554688 36.429688 44.546875 36.429688 C 44.535156 36.429688 44.589844 36.492188 44.664062 36.574219 M 43.476562 37.726562 C 43.59375 37.839844 43.695312 37.933594 43.703125 37.933594 C 43.71875 37.933594 43.632812 37.839844 43.523438 37.726562 C 43.40625 37.609375 43.304688 37.515625 43.296875 37.515625 C 43.28125 37.515625 43.367188 37.609375 43.476562 37.726562 M 56.476562 37.734375 L 56.273438 37.953125 L 56.492188 37.746094 C 56.609375 37.632812 56.710938 37.53125 56.710938 37.527344 C 56.710938 37.496094 56.671875 37.53125 56.476562 37.734375 M 48.523438 39.734375 C 48.609375 39.824219 48.695312 39.898438 48.703125 39.898438 C 48.714844 39.898438 48.652344 39.824219 48.5625 39.734375 C 48.472656 39.640625 48.390625 39.5625 48.378906 39.5625 C 48.367188 39.5625 48.429688 39.640625 48.523438 39.734375 M 51.4375 39.742188 L 51.273438 39.921875 L 51.445312 39.753906 C 51.613281 39.601562 51.644531 39.5625 51.613281 39.5625 C 51.605469 39.5625 51.523438 39.644531 51.4375 39.742188 M 52.882812 40.632812 C 52.886719 40.722656 52.894531 40.757812 52.90625 40.703125 C 52.914062 40.652344 52.914062 40.578125 52.90625 40.539062 C 52.890625 40.496094 52.882812 40.539062 52.882812 40.632812 M 54.554688 40.632812 C 54.554688 40.722656 54.5625 40.757812 54.570312 40.703125 C 54.578125 40.652344 54.578125 40.578125 54.570312 40.539062 C 54.5625 40.496094 54.550781 40.539062 54.554688 40.632812 M 45.429688 40.734375 C 45.429688 40.859375 45.4375 40.914062 45.445312 40.851562 C 45.453125 40.789062 45.453125 40.683594 45.445312 40.621094 C 45.4375 40.554688 45.429688 40.609375 45.429688 40.734375 M 47.09375 40.671875 C 47.09375 40.765625 47.101562 40.796875 47.113281 40.746094 C 47.125 40.695312 47.125 40.617188 47.109375 40.578125 C 47.101562 40.539062 47.09375 40.578125 47.09375 40.671875 M 42.59375 41.226562 C 43.117188 41.234375 43.96875 41.234375 44.492188 41.226562 C 45.011719 41.21875 44.585938 41.214844 43.539062 41.214844 C 42.5 41.214844 42.070312 41.21875 42.59375 41.226562 M 47.59375 41.226562 C 47.886719 41.234375 48.363281 41.234375 48.65625 41.226562 C 48.949219 41.21875 48.710938 41.210938 48.125 41.210938 C 47.539062 41.210938 47.300781 41.21875 47.59375 41.226562 M 51.34375 41.226562 C 51.636719 41.234375 52.113281 41.234375 52.40625 41.226562 C 52.699219 41.21875 52.460938 41.210938 51.875 41.210938 C 51.289062 41.210938 51.050781 41.21875 51.34375 41.226562 M 55.507812 41.226562 C 56.03125 41.234375 56.882812 41.234375 57.40625 41.226562 C 57.929688 41.21875 57.5 41.214844 56.460938 41.214844 C 55.414062 41.214844 54.988281 41.21875 55.507812 41.226562 M 41.382812 42.898438 C 42.15625 42.90625 43.421875 42.90625 44.195312 42.898438 C 44.96875 42.890625 44.335938 42.890625 42.789062 42.890625 C 41.242188 42.890625 40.609375 42.890625 41.382812 42.898438 M 47.277344 42.898438 C 47.265625 42.914062 47.542969 42.925781 47.890625 42.921875 C 49.070312 42.898438 49.1875 42.882812 48.242188 42.875 C 47.722656 42.875 47.289062 42.882812 47.277344 42.898438 M 51.148438 42.898438 C 51.96875 42.929688 52.75 42.929688 52.75 42.898438 C 52.75 42.882812 52.3125 42.875 51.78125 42.875 C 51.25 42.882812 50.960938 42.890625 51.148438 42.898438 M 55.804688 42.898438 C 56.578125 42.90625 57.84375 42.90625 58.617188 42.898438 C 59.390625 42.890625 58.757812 42.890625 57.210938 42.890625 C 55.664062 42.890625 55.03125 42.890625 55.804688 42.898438 M 38.085938 46.023438 C 38.207031 46.152344 38.320312 46.257812 38.328125 46.257812 C 38.34375 46.257812 38.25 46.152344 38.125 46.023438 C 38 45.898438 37.890625 45.796875 37.875 45.796875 C 37.867188 45.796875 37.960938 45.898438 38.085938 46.023438 M 61.875 46.039062 L 61.648438 46.277344 L 61.882812 46.046875 C 62.015625 45.921875 62.125 45.8125 62.125 45.808594 C 62.125 45.777344 62.085938 45.8125 61.875 46.039062 M 47.75 47.359375 C 47.75 47.363281 47.8125 47.421875 47.882812 47.492188 L 48.023438 47.617188 L 47.898438 47.476562 C 47.785156 47.351562 47.75 47.324219 47.75 47.359375 M 48.3125 47.929688 C 48.402344 48.023438 48.484375 48.09375 48.496094 48.09375 C 48.507812 48.09375 48.445312 48.023438 48.351562 47.929688 C 48.265625 47.835938 48.179688 47.761719 48.171875 47.761719 C 48.160156 47.761719 48.222656 47.835938 48.3125 47.929688 M 51.644531 47.9375 L 51.476562 48.117188 L 51.65625 47.953125 C 51.820312 47.796875 51.851562 47.761719 51.820312 47.761719 C 51.8125 47.761719 51.734375 47.84375 51.644531 47.9375 M 49.457031 48.898438 C 49.628906 49.085938 49.664062 49.117188 49.664062 49.085938 C 49.664062 49.078125 49.578125 48.992188 49.46875 48.890625 L 49.273438 48.703125 L 49.457031 48.898438 M 50.453125 48.964844 L 50.3125 49.121094 L 50.46875 48.976562 C 50.613281 48.84375 50.644531 48.804688 50.609375 48.804688 C 50.605469 48.804688 50.535156 48.875 50.453125 48.964844 "/>
<path style=" stroke:none;fill-rule:evenodd;fill:rgb(36.470588%,53.333333%,47.058824%);fill-opacity:1;" d="M 43.34375 14.085938 C 47.003906 14.089844 52.996094 14.089844 56.65625 14.085938 C 60.316406 14.078125 57.320312 14.070312 50 14.070312 C 42.679688 14.070312 39.683594 14.078125 43.34375 14.085938 M 49.09375 26.179688 C 49.09375 26.261719 49.101562 26.296875 49.109375 26.253906 C 49.125 26.214844 49.125 26.148438 49.109375 26.109375 C 49.101562 26.070312 49.09375 26.101562 49.09375 26.179688 M 49.136719 27.332031 C 49.136719 27.445312 49.144531 27.488281 49.15625 27.421875 C 49.164062 27.359375 49.164062 27.265625 49.15625 27.214844 C 49.144531 27.164062 49.136719 27.21875 49.136719 27.332031 M 50.84375 27.414062 C 50.84375 27.53125 50.851562 27.570312 50.863281 27.507812 C 50.875 27.445312 50.875 27.351562 50.863281 27.296875 C 50.851562 27.25 50.84375 27.300781 50.84375 27.414062 M 50.84375 28.609375 C 50.84375 28.6875 50.851562 28.71875 50.859375 28.679688 C 50.875 28.640625 50.875 28.574219 50.859375 28.53125 C 50.851562 28.492188 50.84375 28.523438 50.84375 28.609375 M 49.132812 28.648438 C 49.132812 28.726562 49.140625 28.761719 49.15625 28.71875 C 49.164062 28.679688 49.164062 28.617188 49.15625 28.578125 C 49.140625 28.535156 49.132812 28.570312 49.132812 28.648438 M 41.929688 36.207031 C 42.0625 36.21875 42.265625 36.21875 42.386719 36.207031 C 42.507812 36.199219 42.398438 36.191406 42.148438 36.191406 C 41.894531 36.191406 41.796875 36.199219 41.929688 36.207031 M 57.636719 36.207031 C 57.769531 36.21875 57.976562 36.21875 58.09375 36.207031 C 58.214844 36.199219 58.105469 36.191406 57.851562 36.191406 C 57.601562 36.191406 57.503906 36.199219 57.636719 36.207031 "/>
<path style=" stroke:none;fill-rule:evenodd;fill:rgb(23.137255%,48.627451%,56.862745%);fill-opacity:1;" d="M 36.6875 28.460938 C 36.6875 36.375 36.691406 39.601562 36.695312 35.640625 C 36.703125 31.675781 36.703125 25.203125 36.695312 21.253906 C 36.691406 17.304688 36.6875 20.546875 36.6875 28.460938 M 63.3125 28.480469 C 63.3125 36.40625 63.316406 39.648438 63.320312 35.6875 C 63.328125 31.722656 63.328125 25.242188 63.320312 21.277344 C 63.316406 17.3125 63.3125 20.554688 63.3125 28.480469 M 51.136719 22.207031 C 51.136719 22.3125 51.144531 22.351562 51.15625 22.304688 C 51.164062 22.25 51.164062 22.164062 51.15625 22.113281 C 51.144531 22.0625 51.136719 22.101562 51.136719 22.207031 M 41.6875 28.355469 C 41.6875 31.75 41.691406 33.136719 41.695312 31.4375 C 41.703125 29.742188 41.703125 26.96875 41.695312 25.273438 C 41.691406 23.574219 41.6875 24.960938 41.6875 28.355469 M 58.3125 28.355469 C 58.3125 31.75 58.316406 33.136719 58.320312 31.4375 C 58.328125 29.742188 58.328125 26.96875 58.320312 25.273438 C 58.316406 23.574219 58.3125 24.960938 58.3125 28.355469 M 48.882812 22.835938 C 48.882812 22.914062 48.890625 22.949219 48.90625 22.90625 C 48.914062 22.867188 48.914062 22.804688 48.90625 22.761719 C 48.890625 22.722656 48.882812 22.753906 48.882812 22.835938 M 51.09375 22.875 C 51.09375 22.980469 51.101562 23.023438 51.113281 22.96875 C 51.125 22.921875 51.125 22.835938 51.113281 22.78125 C 51.101562 22.730469 51.09375 22.773438 51.09375 22.875 M 48.929688 23.460938 C 48.929688 23.566406 48.9375 23.609375 48.945312 23.554688 C 48.953125 23.507812 48.953125 23.421875 48.945312 23.367188 C 48.9375 23.316406 48.929688 23.359375 48.929688 23.460938 M 51.054688 23.546875 C 51.054688 23.648438 51.0625 23.691406 51.070312 23.640625 C 51.078125 23.585938 51.078125 23.503906 51.070312 23.453125 C 51.0625 23.398438 51.054688 23.445312 51.054688 23.546875 M 48.96875 24.132812 C 48.96875 24.234375 48.976562 24.277344 48.988281 24.226562 C 49 24.171875 49 24.089844 48.988281 24.039062 C 48.976562 23.984375 48.96875 24.027344 48.96875 24.132812 M 51.007812 24.195312 C 51.011719 24.289062 51.019531 24.320312 51.03125 24.265625 C 51.039062 24.214844 51.039062 24.140625 51.03125 24.101562 C 51.015625 24.0625 51.007812 24.101562 51.007812 24.195312 M 49.007812 24.820312 C 49.011719 24.914062 49.019531 24.945312 49.03125 24.894531 C 49.039062 24.84375 49.039062 24.765625 49.03125 24.726562 C 49.015625 24.6875 49.007812 24.730469 49.007812 24.820312 M 50.96875 24.84375 C 50.96875 24.921875 50.976562 24.957031 50.984375 24.914062 C 51 24.875 51 24.8125 50.984375 24.769531 C 50.976562 24.726562 50.96875 24.761719 50.96875 24.84375 M 49.050781 25.554688 C 49.050781 25.632812 49.0625 25.667969 49.070312 25.625 C 49.078125 25.585938 49.078125 25.523438 49.070312 25.480469 C 49.0625 25.4375 49.050781 25.472656 49.050781 25.554688 M 50.925781 25.554688 C 50.925781 25.632812 50.9375 25.667969 50.945312 25.625 C 50.953125 25.585938 50.953125 25.523438 50.945312 25.480469 C 50.9375 25.4375 50.925781 25.472656 50.925781 25.554688 M 49.09375 26.429688 C 49.09375 26.511719 49.101562 26.546875 49.109375 26.507812 C 49.125 26.464844 49.125 26.398438 49.109375 26.359375 C 49.101562 26.320312 49.09375 26.351562 49.09375 26.429688 M 50.882812 26.429688 C 50.882812 26.511719 50.890625 26.546875 50.90625 26.507812 C 50.914062 26.464844 50.914062 26.398438 50.90625 26.359375 C 50.890625 26.320312 50.882812 26.351562 50.882812 26.429688 M 49.140625 28.023438 C 49.140625 28.308594 49.148438 28.425781 49.15625 28.28125 C 49.164062 28.140625 49.164062 27.90625 49.15625 27.757812 C 49.148438 27.617188 49.140625 27.734375 49.140625 28.023438 M 50.851562 28.042969 C 50.851562 28.296875 50.855469 28.390625 50.863281 28.257812 C 50.875 28.125 50.875 27.921875 50.863281 27.800781 C 50.855469 27.679688 50.851562 27.789062 50.851562 28.042969 M 43.453125 32.988281 L 43.3125 33.144531 L 43.46875 33 C 43.613281 32.867188 43.644531 32.828125 43.609375 32.828125 C 43.605469 32.828125 43.535156 32.902344 43.453125 32.988281 M 56.5 32.976562 C 56.578125 33.054688 56.648438 33.125 56.664062 33.125 C 56.671875 33.125 56.617188 33.054688 56.539062 32.976562 C 56.464844 32.898438 56.390625 32.828125 56.378906 32.828125 C 56.367188 32.828125 56.421875 32.898438 56.5 32.976562 M 9.054688 33.445312 C 14.042969 33.453125 22.207031 33.453125 27.195312 33.445312 C 32.1875 33.441406 28.105469 33.4375 18.125 33.4375 C 8.144531 33.4375 4.0625 33.441406 9.054688 33.445312 M 72.804688 33.445312 C 77.792969 33.453125 85.957031 33.453125 90.945312 33.445312 C 95.9375 33.441406 91.855469 33.4375 81.875 33.4375 C 71.894531 33.4375 67.8125 33.441406 72.804688 33.445312 M 55.804688 35.359375 C 55.804688 35.5 55.8125 35.550781 55.820312 35.476562 C 55.832031 35.398438 55.828125 35.289062 55.820312 35.226562 C 55.8125 35.164062 55.804688 35.222656 55.804688 35.359375 M 44.179688 35.359375 C 44.179688 35.476562 44.1875 35.515625 44.195312 35.453125 C 44.207031 35.390625 44.203125 35.296875 44.195312 35.246094 C 44.1875 35.195312 44.179688 35.246094 44.179688 35.359375 M 41.6875 38.707031 C 41.6875 40.085938 41.691406 40.648438 41.695312 39.945312 C 41.703125 39.25 41.703125 38.121094 41.695312 37.4375 C 41.691406 36.757812 41.6875 37.328125 41.6875 38.707031 M 58.3125 38.707031 C 58.3125 40.085938 58.316406 40.648438 58.320312 39.945312 C 58.328125 39.25 58.328125 38.121094 58.320312 37.4375 C 58.316406 36.757812 58.3125 37.328125 58.3125 38.707031 M 43.460938 37.742188 C 43.535156 37.828125 43.609375 37.890625 43.621094 37.890625 C 43.632812 37.890625 43.578125 37.828125 43.5 37.742188 C 43.421875 37.664062 43.351562 37.597656 43.335938 37.597656 C 43.328125 37.597656 43.382812 37.664062 43.460938 37.742188 M 56.5 37.757812 L 56.351562 37.914062 L 56.507812 37.765625 C 56.65625 37.632812 56.6875 37.597656 56.65625 37.597656 C 56.648438 37.597656 56.578125 37.671875 56.5 37.757812 M 49.707031 38.53125 C 49.878906 38.714844 49.914062 38.75 49.914062 38.714844 C 49.914062 38.710938 49.828125 38.617188 49.71875 38.515625 L 49.523438 38.328125 L 49.707031 38.53125 M 50.269531 38.53125 L 50.101562 38.707031 L 50.28125 38.539062 C 50.445312 38.390625 50.476562 38.351562 50.445312 38.351562 C 50.4375 38.351562 50.359375 38.429688 50.269531 38.53125 M 54.59375 41.046875 C 54.59375 41.140625 54.601562 41.171875 54.613281 41.121094 C 54.625 41.070312 54.625 40.992188 54.609375 40.953125 C 54.601562 40.914062 54.59375 40.957031 54.59375 41.046875 M 45.382812 41.070312 C 45.382812 41.148438 45.390625 41.183594 45.40625 41.140625 C 45.414062 41.101562 45.414062 41.039062 45.40625 40.996094 C 45.390625 40.957031 45.382812 40.992188 45.382812 41.070312 M 52.882812 41.070312 C 52.882812 41.148438 52.890625 41.183594 52.90625 41.140625 C 52.914062 41.101562 52.914062 41.039062 52.90625 40.996094 C 52.890625 40.957031 52.882812 40.992188 52.882812 41.070312 M 49.132812 44.601562 C 49.125 46.21875 49.121094 46.304688 49.054688 46.25 C 48.984375 46.203125 48.984375 46.203125 49.050781 46.277344 C 49.167969 46.40625 49.167969 46.386719 49.15625 44.601562 L 49.144531 42.890625 L 49.132812 44.601562 M 50.84375 44.617188 C 50.835938 46.296875 50.84375 46.421875 50.960938 46.265625 C 51.015625 46.199219 51.015625 46.199219 50.949219 46.25 C 50.878906 46.304688 50.875 46.214844 50.867188 44.597656 L 50.851562 42.890625 L 50.84375 44.617188 M 51.875 47.742188 C 51.703125 47.914062 51.574219 48.054688 51.585938 48.054688 C 51.597656 48.054688 51.746094 47.914062 51.914062 47.742188 C 52.085938 47.570312 52.21875 47.429688 52.207031 47.429688 C 52.195312 47.429688 52.046875 47.570312 51.875 47.742188 M 48.125 47.78125 C 48.25 47.90625 48.359375 48.011719 48.375 48.011719 C 48.382812 48.011719 48.289062 47.90625 48.164062 47.78125 C 48.042969 47.65625 47.929688 47.554688 47.921875 47.554688 C 47.90625 47.554688 48 47.65625 48.125 47.78125 "/>
</g>
</svg>
